<svg xmlns="http://www.w3.org/2000/svg" version="1.1" viewBox="-5.0 -10.0 110.0 135.0">
 <path d="m92.117 22.984c-2.4727-1.4922-5.3203-2.2422-8.2031-2.1562-3.875-1.7422-8.293-1.8438-12.242-0.27344-1.7344-0.73047-3.5664-1.2031-5.4375-1.3945-9.1641-0.99219-14.5 3.3398-15.898 4.668-11.27-1.2812-15.977 5.8711-17.371 8.6836h-0.089844c-14.098 0.24219-16.516 10.602-16.883 12.918-0.12109 0.035156-0.23438 0.066406-0.35547 0.10547-3.8789 1.2344-6.5156 3.3516-7.8359 6.3008-1.1445 2.8984-1.2109 6.1094-0.1875 9.0508-0.40234 0.43359-0.75781 0.90625-1.0703 1.4102-1.582 2.6445-1.7852 6.0312-0.59375 10.066 0.91406 3.7891 4.207 6.5234 8.0977 6.7227 0.22656 0.015624 0.45703 0.023437 0.68359 0.023437 1.8164-0.015625 3.6055-0.46094 5.2148-1.3008 2.6172 1.4844 5.5703 2.2812 8.582 2.3125 2.9844-0.003906 5.9023-0.875 8.3945-2.5078 0.63281-0.41016 1.2305-0.86328 1.8008-1.3555 1.3555 0.36719 2.7539 0.54688 4.1602 0.54297 3.5391 0 8.4414-1.1367 13.184-5.9961 0.9375-0.95703 1.8242-1.9609 2.6562-3.0117l-0.085937 0.25781c1.0312 0.30078 2.1016 0.44141 3.1758 0.42188 3.0117 0 7.75-1.0078 12.41-6.1094 1.0625-1.1641 1.9766-2.457 2.7188-3.8438 4.707-0.60156 8.9062-3.2539 11.473-7.2461 1.9023-3.1797 2.8242-6.8477 2.6562-10.547 0.91406-0.50391 1.7617-1.1211 2.5234-1.8359 1.832-1.7266 2.7695-4.9297 2.4453-8.3633-0.31641-3.3594-1.7812-6.1797-3.9219-7.543zm-8.9102 1.0391 0.007813 0.058593c0.003906 0 0.042968-0.003906 0.10156-0.011719 0.36719 0.17969 0.73828 0.38281 1.1094 0.60938 2.5742 1.3672 3.9648 4.2461 3.4297 7.1094-2.1484-2.0859-4.9492-3.375-7.9336-3.6523-1.0938-2.0703-2.6094-3.8867-4.4492-5.3359 2.6406-0.39453 5.3438 0.03125 7.7344 1.2227zm-17.324-1.6719c4.668 0.34766 8.8438 3.0195 11.113 7.1133-0.59375 0.70703-1.0039 1.5586-1.1836 2.4688-3.0586-0.77734-7.7188-1.5508-10.172 0.050781-2.1523-1.6914-7.0273-5.3164-11.445-7.1211 3.4766-2.1914 7.6172-3.0781 11.688-2.5117zm-15.602 4.6953c3.8086 0.48828 10.062 4.8672 13.258 7.3672-0.88281 1.4492-1.5273 3.0273-1.9102 4.6797-2.6055-0.41797-7.1719-0.97656-10.281-0.38281-0.35938 0.070312-0.71094 0.17969-1.0469 0.32812-2.4336-1.4336-8.6523-4.8945-13.945-6.1055 1.5273-2.5508 5.4453-6.9688 13.926-5.8867zm-17.352 8.6719h0.125c4.0469 0 10.773 3.3281 14.637 5.5195v-0.003906c-1.2148 1.7773-2.1211 3.7461-2.6875 5.8203-3.3281-0.47656-6.7266 0.003906-9.793 1.3828-4.5586-3.3008-10.242-4.6602-15.805-3.7812 0.75-2.8359 3.5117-8.7656 13.523-8.9375zm-22.191 17.41c0.93359-2.0664 2.9062-3.5938 5.8672-4.5312l0.003906-0.003906c5.168-1.7773 10.859-1.1758 15.539 1.6445-2.6719 1.8906-4.7812 4.4727-6.1016 7.4688-3.3047-1.3594-6.9531-1.668-10.441-0.88281-1.8398 0.35156-3.6133 0.98828-5.2539 1.8906-0.46094-1.8594-0.32422-3.8125 0.39063-5.5859zm3.5195 22.754c-2.543-0.125-4.6836-1.9375-5.2305-4.4258-0.92578-3.1406-0.83594-5.668 0.26953-7.5117 1.1562-1.9258 3.4961-3.2617 6.9609-3.9805v0.003906c1.082-0.22656 2.1836-0.34375 3.2891-0.34375 1.8516-0.023438 3.6836 0.34766 5.3789 1.0898-0.5 1.6328-0.85156 3.2422-1.1797 4.75-0.35547 1.9805-0.90625 3.9219-1.6406 5.7969-1.457 2.9688-4.543 4.7852-7.8477 4.6211zm20.934-0.97266c-3.7109 2.3398-8.3555 2.6328-12.328 0.78125 0.91016-0.90234 1.6484-1.9609 2.1758-3.1289 0.83203-2.0703 1.4492-4.2188 1.8438-6.4141 1.1719-5.3828 2.3828-10.945 9.1758-14.559 2.5039-1.2539 5.3242-1.7383 8.1055-1.4023-0.37891 1.6016-0.69922 3.1992-0.99219 4.6719l-0.09375 0.48047c-0.22656 1.1367-0.39453 2.4062-0.57031 3.75-0.70703 5.4141-1.5859 12.148-7.3164 15.82zm18.578-6.3477c-4.8047 4.9258-9.6992 5.2734-12.492 4.9336 3.1445-4.3398 3.8594-9.7422 4.4141-13.988 0.16797-1.2891 0.32812-2.5039 0.53125-3.5352l0.097656-0.48438c0.91016-4.5586 2.6016-13.047 5.6328-13.625 2.6094-0.5 6.7188 0.011719 9.1172 0.39453-0.26172 2.168-0.33203 4.418-0.39844 6.6367l-0.039063 1.2227c-0.023437 0.68359-0.03125 1.3594-0.039062 2.0273-0.070312 5.125-0.125 9.5508-6.8242 16.418zm18.086-8.3633c-4.7305 5.1797-9.3555 5.25-11.285 4.9922 3.1211-5.0039 3.1797-9.0547 3.2305-13.004 0.007813-0.64844 0.015625-1.3008 0.039063-1.9609l0.039062-1.2344c0.16406-5.3555 0.33203-10.891 3.4297-14.262 0.79297-0.86328 4.7266-0.47266 8.2969 0.47266 0.054687 1.1523 0.19922 2.4492 0.41016 3.9062l0.03125 0.22656c0.50781 3.4648 2.0547 14.02-4.1914 20.863zm13.84-10.629h-0.003906c-1.6445 2.6289-4.2305 4.5312-7.2266 5.3242 1.4141-4.4297 1.6719-9.7891 0.75781-16.027l-0.03125-0.22266c-0.76172-5.2344-0.32422-6.6367 0.46875-7.3125 1.5 0.16797 6.0703 1.0469 7.5352 5.4727v0.003906c1.2812 4.2812 0.73828 8.8984-1.5039 12.762zm5.6992-13.016c-0.24609 0.22656-0.50391 0.44141-0.77344 0.64062-0.10938-0.48828-0.23828-0.95703-0.38281-1.3945-0.042969-0.12891-0.089843-0.24609-0.13672-0.37109h0.003907c1.5352-3.2617 1.3516-7.0742-0.48828-10.176 0.26172 0.13281 0.51953 0.27344 0.77734 0.4375 1.2891 0.82031 2.2305 2.7891 2.4531 5.1367 0.22266 2.3945-0.35938 4.6953-1.4531 5.7266z"/>
<text x="0.0" y="117.5" font-size="5.0" font-weight="bold" font-family="Arbeit Regular, Helvetica, Arial-Unicode, Arial, Sans-serif" fill="#000000">Created by Aidan Stonehouse</text><text x="0.0" y="122.5" font-size="5.0" font-weight="bold" font-family="Arbeit Regular, Helvetica, Arial-Unicode, Arial, Sans-serif" fill="#000000">from Noun Project</text></svg>